<?xml version="1.0" encoding="utf-8"?>
<!-- Generator: Adobe Illustrator 21.0.0, SVG Export Plug-In . SVG Version: 6.00 Build 0)  -->
<svg version="1.1" id="Layer_1" xmlns="http://www.w3.org/2000/svg" xmlns:xlink="http://www.w3.org/1999/xlink" x="0px" y="0px"
	 width="32px" height="32px" viewBox="0 0 32 32" style="enable-background:new 0 0 32 32;" xml:space="preserve">
<style type="text/css">
	.st0{fill:#1C66AB;}
	.st1{fill:#FFFFFF;}
</style>
<path class="st0" d="M30.4,5.6c-0.6-1.9-2.1-3.5-4-4C24,0.9,20.3,0,16,0l0,0l0,0C11.7,0,8,0.9,5.7,1.6c-1.9,0.6-3.5,2.1-4,4
	C0.9,8,0,11.7,0,16s0.9,8,1.6,10.4c0.6,1.9,2.1,3.5,4,4C8,31.1,11.7,32,16,32l0,0l0,0c4.3,0,8-0.9,10.3-1.6c1.9-0.6,3.5-2.1,4-4
	C31.1,24,32,20.3,32,16S31.1,8,30.4,5.6z"/>
<path class="st1" d="M12,18c1.7,0,3-1.3,3-3s-1.3-3-3-3c-0.5,0-1.1,0.2-1.5,0.4V11c0-0.8,0.7-1.5,1.5-1.5s1.5,0.7,1.5,1.5H15
	c0-1.7-1.3-3-3-3s-3,1.3-3,3v4C9,16.7,10.3,18,12,18z M12,13.5c0.8,0,1.5,0.7,1.5,1.5s-0.7,1.5-1.5,1.5s-1.5-0.7-1.5-1.5
	S11.1,13.5,12,13.5z"/>
<path class="st1" d="M19.8,18c1.7,0,3-1.3,3-3s-1.3-3-3-3c-0.5,0-1.1,0.2-1.5,0.4V11c0-0.8,0.7-1.5,1.5-1.5s1.5,0.7,1.5,1.5h1.5
	c0-1.7-1.3-3-3-3s-3,1.3-3,3v4C16.8,16.7,18.1,18,19.8,18z M19.8,13.5c0.8,0,1.5,0.7,1.5,1.5s-0.7,1.5-1.5,1.5s-1.5-0.7-1.5-1.5
	S18.9,13.5,19.8,13.5z"/>
<g>
	<rect x="9" y="21" class="st1" width="14" height="1"/>
</g>
<g>
	<rect x="12" y="24" class="st1" width="8" height="1"/>
</g>
</svg>
