<?xml version="1.0" encoding="utf-8"?>
<!-- Generator: Adobe Illustrator 21.1.0, SVG Export Plug-In . SVG Version: 6.00 Build 0)  -->
<svg version="1.1" id="Layer_1" xmlns="http://www.w3.org/2000/svg" xmlns:xlink="http://www.w3.org/1999/xlink" x="0px" y="0px"
	 viewBox="0 0 18.3 31.5" style="enable-background:new 0 0 18.3 31.5;" xml:space="preserve">
<style type="text/css">
	.st0{fill:#888888;}
</style>
<g id="_x34_4px-Line">
	<g id="arr-horizontal-2">
	</g>
	<path id="Shape" class="st0" d="M10.1,30.5V3.4l6.4,6.4c0.4,0.4,1,0.4,1.4,0s0.4-1,0-1.4L9.8,0.3C9.7,0.2,9.6,0.1,9.5,0.1
		C9.3,0,9,0,8.7,0.1C8.6,0.2,8.5,0.2,8.4,0.3L0.3,8.4C0.1,8.6,0,8.9,0,9.1s0.1,0.5,0.3,0.7c0.4,0.4,1,0.4,1.4,0l6.4-6.4v27.1
		c0,0.6,0.5,1,1,1S10.1,31.1,10.1,30.5L10.1,30.5z"/>
</g>
</svg>
