<?xml version="1.0" encoding="utf-8"?>
<!-- Generator: Adobe Illustrator 21.0.0, SVG Export Plug-In . SVG Version: 6.00 Build 0)  -->
<svg version="1.1" id="Layer_1" xmlns="http://www.w3.org/2000/svg" xmlns:xlink="http://www.w3.org/1999/xlink" x="0px" y="0px"
	 width="32px" height="32px" viewBox="0 0 32 32" style="enable-background:new 0 0 32 32;" xml:space="preserve">
<style type="text/css">
	.st0{fill:#1C66AB;}
	.st1{fill:#FFFFFF;}
</style>
<path class="st0" d="M30.4,5.6c-0.6-1.9-2.1-3.5-4-4C24,0.9,20.3,0,16,0l0,0l0,0C11.7,0,8,0.9,5.7,1.6c-1.9,0.6-3.5,2.1-4,4
	C0.9,8,0,11.7,0,16s0.9,8,1.6,10.4c0.6,1.9,2.1,3.5,4,4C8,31.1,11.7,32,16,32l0,0l0,0c4.3,0,8-0.9,10.3-1.6c1.9-0.6,3.5-2.1,4-4
	C31.1,24,32,20.3,32,16S31.1,8,30.4,5.6z"/>
<path class="st1" d="M16,6C10.5,6,6,10.5,6,16s4.5,10,10,10s10-4.5,10-10S21.5,6,16,6z M22.7,10.8l-2.1,3.7l-4-7
	C19.1,7.7,21.3,9,22.7,10.8z M19.8,16l-1.9,3.2h-2.4h-1.3l-2-3.2l1.9-3.2h2.4h1.3l1.2,2.1l0,0L19.8,16z M14.9,7.6l2.1,3.7h-0.5H9
	C10.3,9.3,12.4,7.9,14.9,7.6z M8.4,19.7c-0.5-1.1-0.9-2.4-0.9-3.7c0-1.2,0.2-2.2,0.6-3.3h4.2l-0.2,0.4l0,0L8.4,19.7z M9.3,21.2
	l2.1-3.7l4,7C12.9,24.3,10.7,23,9.3,21.2z M17.1,24.4L15,20.8h0.5H23C21.7,22.7,19.6,24.1,17.1,24.4z M19.6,19.3l0.2-0.4l0,0
	l3.8-6.6c0.5,1.1,0.9,2.4,0.9,3.7c0,1.2-0.2,2.2-0.6,3.3H19.6z"/>
</svg>
