<?xml version="1.0" encoding="utf-8"?>
<!-- Generator: Adobe Illustrator 21.0.0, SVG Export Plug-In . SVG Version: 6.00 Build 0)  -->
<svg version="1.1" id="Layer_1" xmlns="http://www.w3.org/2000/svg" xmlns:xlink="http://www.w3.org/1999/xlink" x="0px" y="0px"
	 width="32px" height="32px" viewBox="0 0 32 32" style="enable-background:new 0 0 32 32;" xml:space="preserve">
<style type="text/css">
	.st0{fill:#1C66AB;}
	.st1{fill:#FFFFFF;}
</style>
<path class="st0" d="M30.4,5.6c-0.6-1.9-2.1-3.5-4-4C24,0.9,20.3,0,16,0l0,0l0,0C11.7,0,8,0.9,5.7,1.6c-1.9,0.6-3.5,2.1-4,4
	C0.9,8,0,11.7,0,16s0.9,8,1.6,10.4c0.6,1.9,2.1,3.5,4,4C8,31.1,11.7,32,16,32l0,0l0,0c4.3,0,8-0.9,10.3-1.6c1.9-0.6,3.5-2.1,4-4
	C31.1,24,32,20.3,32,16S31.1,8,30.4,5.6z"/>
<path class="st1" d="M16,21.5c-3,0-5.5-2.5-5.5-5.5s2.5-5.5,5.5-5.5s5.5,2.5,5.5,5.5H23c0-3.8-3.2-7-7-7s-7,3.2-7,7s3.2,7,7,7V21.5z
	"/>
<path class="st1" d="M16,6v1.5c4.7,0,8.5,3.8,8.5,8.5s-3.8,8.5-8.5,8.5S7.5,20.7,7.5,16H6c0,5.5,4.5,10,10,10s10-4.5,10-10
	S21.5,6,16,6z"/>
</svg>
