<?xml version="1.0" encoding="utf-8"?>
<!-- Generator: Adobe Illustrator 21.0.0, SVG Export Plug-In . SVG Version: 6.00 Build 0)  -->
<svg version="1.1" id="Layer_1" xmlns="http://www.w3.org/2000/svg" xmlns:xlink="http://www.w3.org/1999/xlink" x="0px" y="0px"
	 width="32px" height="32px" viewBox="0 0 32 32" style="enable-background:new 0 0 32 32;" xml:space="preserve">
<style type="text/css">
	.st0{fill:#1C66AB;}
	.st1{fill:#FFFFFF;}
</style>
<path class="st0" d="M30.4,5.6c-0.6-1.9-2.1-3.5-4-4C24,0.9,20.3,0,16,0l0,0l0,0C11.7,0,8,0.9,5.7,1.6c-1.9,0.6-3.5,2.1-4,4
	C0.9,8,0,11.7,0,16s0.9,8,1.6,10.4c0.6,1.9,2.1,3.5,4,4C8,31.1,11.7,32,16,32l0,0l0,0c4.3,0,8-0.9,10.3-1.6c1.9-0.6,3.5-2.1,4-4
	C31.1,24,32,20.3,32,16S31.1,8,30.4,5.6z"/>
<path class="st1" d="M22.4,10.1h-2.9V9.7C19.5,7.6,18,6,16,6s-3.5,1.6-3.5,3.7v0.4H9.6c-0.7,0-1.1,0.5-1.1,1.1c0,0,0,0,0,0.1l1,11.3
	c0,1.5,1.2,2.5,2.8,2.5h7.4c1.6,0,2.8-1.1,2.8-2.6l1-11.1c0,0,0,0,0-0.1C23.5,10.6,23,10.1,22.4,10.1z M13.9,9.7
	c0-1.3,0.9-2.3,2.1-2.3s2.1,1,2.1,2.3v0.4h-4.2C13.9,10.1,13.9,9.7,13.9,9.7z M21.1,22.4c0,0.7-0.6,1.3-1.4,1.3h-7.4
	c-0.8,0-1.4-0.5-1.4-1.2v-0.1l-1-10.9h12.2L21.1,22.4z"/>
<rect x="13" y="14" class="st1" width="6" height="1"/>
<rect x="13" y="17" class="st1" width="6" height="1"/>
<rect x="13" y="20" class="st1" width="6" height="1"/>
</svg>
