<?xml version="1.0" encoding="utf-8"?>
<!-- Generator: Adobe Illustrator 21.0.0, SVG Export Plug-In . SVG Version: 6.00 Build 0)  -->
<svg version="1.1" id="Layer_1" xmlns="http://www.w3.org/2000/svg" xmlns:xlink="http://www.w3.org/1999/xlink" x="0px" y="0px"
	 width="32px" height="32px" viewBox="0 0 32 32" style="enable-background:new 0 0 32 32;" xml:space="preserve">
<style type="text/css">
	.st0{fill:#1C66AB;}
	.st1{fill:#FFFFFF;}
	.st2{fill:none;stroke:#FFFFFF;stroke-width:1.5;stroke-miterlimit:10;}
</style>
<path class="st0" d="M30.4,5.6c-0.6-1.9-2.1-3.5-4-4C24,0.9,20.3,0,16,0l0,0l0,0C11.7,0,8,0.9,5.7,1.6c-1.9,0.6-3.5,2.1-4,4
	C0.9,8,0,11.7,0,16s0.9,8,1.6,10.4c0.6,1.9,2.1,3.5,4,4C8,31.1,11.7,32,16,32l0,0l0,0c4.3,0,8-0.9,10.3-1.6c1.9-0.6,3.5-2.1,4-4
	C31.1,24,32,20.3,32,16S31.1,8,30.4,5.6z"/>
<g>
	<g>
		<path class="st1" d="M16,8.5c4.1,0,7.5,3.4,7.5,7.5s-3.4,7.5-7.5,7.5S8.5,20.1,8.5,16S11.9,8.5,16,8.5 M16,7c-4.9,0-9,4-9,9
			s4.1,9,9,9s9-4,9-9S21,7,16,7L16,7z"/>
	</g>
</g>
<g>
	<g>
		<path class="st1" d="M16,14c1.1,0,2,0.9,2,2s-0.9,2-2,2s-2-0.9-2-2S14.9,14,16,14 M16,13c-1.6,0-3,1.4-3,3s1.4,3,3,3s3-1.4,3-3
			S17.6,13,16,13L16,13z"/>
	</g>
</g>
<line class="st2" x1="16" y1="4.8" x2="16" y2="11.3"/>
<line class="st2" x1="16" y1="20.8" x2="16" y2="27.3"/>
<line class="st2" x1="4.8" y1="16" x2="11.3" y2="16"/>
<line class="st2" x1="20.8" y1="16" x2="27.3" y2="16"/>
</svg>
