<?xml version="1.0" encoding="utf-8"?>
<!-- Generator: Adobe Illustrator 19.2.0, SVG Export Plug-In . SVG Version: 6.00 Build 0)  -->
<svg version="1.1" id="Layer_1" xmlns="http://www.w3.org/2000/svg" xmlns:xlink="http://www.w3.org/1999/xlink" x="0px" y="0px"
	 width="32px" height="32px" viewBox="0 0 32 32" style="enable-background:new 0 0 32 32;" xml:space="preserve">
<style type="text/css">
	.st0{fill:#1C66AB;}
	.st1{fill:#FFFFFF;}
</style>
<path class="st0" d="M30.4,5.6c-0.6-1.9-2.1-3.5-4-4C24,0.9,20.3,0,16,0l0,0l0,0C11.7,0,8,0.9,5.7,1.6c-1.9,0.6-3.5,2.1-4,4
	C0.9,8,0,11.7,0,16s0.9,8,1.6,10.4c0.6,1.9,2.1,3.5,4,4C8,31.1,11.7,32,16,32l0,0l0,0c4.3,0,8-0.9,10.3-1.6c1.9-0.6,3.5-2.1,4-4
	C31.1,24,32,20.3,32,16S31.1,8,30.4,5.6z"/>
<g>
	<path class="st1" d="M16,7.5c2.7,0,3,0,4.1,0.1c2.9,0.1,4.3,1.5,4.4,4.4c0,1,0.1,1.4,0.1,4.1s0,3-0.1,4.1c-0.1,2.9-1.5,4.3-4.4,4.4
		c-1,0-1.4,0.1-4.1,0.1s-3,0-4.1-0.1c-2.9-0.1-4.3-1.5-4.4-4.4c0-1-0.1-1.4-0.1-4.1s0-3,0.1-4.1C7.6,9.1,9,7.7,11.9,7.6
		C13,7.5,13.3,7.5,16,7.5 M16,6c-2.7,0-3.1,0-4.1,0.1c-3.6,0.2-5.6,2.2-5.8,5.8C6,12.9,6,13.3,6,16s0,3.1,0.1,4.1
		c0.2,3.6,2.2,5.7,5.8,5.8c1.1,0,1.4,0.1,4.1,0.1s3.1,0,4.1-0.1c3.6-0.2,5.7-2.2,5.8-5.8c0-1.1,0.1-1.4,0.1-4.1s0-3.1-0.1-4.1
		c-0.2-3.6-2.2-5.6-5.8-5.8C19.1,6,18.7,6,16,6L16,6z"/>
</g>
<g>
	<path class="st1" d="M16,12.4c2,0,3.6,1.6,3.6,3.6S18,19.6,16,19.6S12.4,18,12.4,16S14,12.4,16,12.4 M16,10.9
		c-2.8,0-5.1,2.3-5.1,5.1s2.3,5.1,5.1,5.1s5.1-2.3,5.1-5.1S18.8,10.9,16,10.9L16,10.9z"/>
</g>
<circle class="st1" cx="21.3" cy="10.7" r="1.2"/>
</svg>
