<?xml version="1.0" encoding="utf-8"?>
<!-- Generator: Adobe Illustrator 21.0.0, SVG Export Plug-In . SVG Version: 6.00 Build 0)  -->
<svg version="1.1" id="Layer_1" xmlns="http://www.w3.org/2000/svg" xmlns:xlink="http://www.w3.org/1999/xlink" x="0px" y="0px"
	 width="32px" height="32px" viewBox="0 0 32 32" style="enable-background:new 0 0 32 32;" xml:space="preserve">
<style type="text/css">
	.st0{fill:#1C66AB;}
	.st1{fill:#FFFFFF;}
</style>
<path class="st0" d="M30.4,5.6c-0.6-1.9-2.1-3.5-4-4C24,0.9,20.3,0,16,0l0,0l0,0C11.7,0,8,0.9,5.7,1.6c-1.9,0.6-3.5,2.1-4,4
	C0.9,8,0,11.7,0,16s0.9,8,1.6,10.4c0.6,1.9,2.1,3.5,4,4C8,31.1,11.7,32,16,32l0,0l0,0c4.3,0,8-0.9,10.3-1.6c1.9-0.6,3.5-2.1,4-4
	C31.1,24,32,20.3,32,16S31.1,8,30.4,5.6z"/>
<g>
	<path class="st1" d="M16,8.5c4.1,0,7.5,3.4,7.5,7.5s-3.4,7.5-7.5,7.5S8.5,20.1,8.5,16S11.9,8.5,16,8.5 M16,7c-5,0-9,4-9,9s4,9,9,9
		s9-4,9-9S21,7,16,7L16,7z"/>
</g>
<g>
	<circle class="st0" cx="16" cy="8" r="3"/>
	<g>
		<path class="st1" d="M16,7c0.6,0,1,0.4,1,1s-0.4,1-1,1s-1-0.4-1-1S15.4,7,16,7 M16,6c-1.1,0-2,0.9-2,2s0.9,2,2,2s2-0.9,2-2
			S17.1,6,16,6L16,6z"/>
	</g>
</g>
<g>
	<circle class="st0" cx="9" cy="20" r="3"/>
	<g>
		<path class="st1" d="M9,19c0.6,0,1,0.4,1,1s-0.4,1-1,1s-1-0.4-1-1S8.4,19,9,19 M9,18c-1.1,0-2,0.9-2,2s0.9,2,2,2s2-0.9,2-2
			S10.1,18,9,18L9,18z"/>
	</g>
</g>
<g>
	<circle class="st0" cx="23" cy="20" r="3"/>
	<g>
		<path class="st1" d="M23,19c0.6,0,1,0.4,1,1s-0.4,1-1,1s-1-0.4-1-1S22.4,19,23,19 M23,18c-1.1,0-2,0.9-2,2s0.9,2,2,2s2-0.9,2-2
			S24.1,18,23,18L23,18z"/>
	</g>
</g>
</svg>
