<?xml version="1.0" encoding="utf-8"?>
<!-- Generator: Adobe Illustrator 21.0.0, SVG Export Plug-In . SVG Version: 6.00 Build 0)  -->
<svg version="1.1" id="Layer_1" xmlns="http://www.w3.org/2000/svg" xmlns:xlink="http://www.w3.org/1999/xlink" x="0px" y="0px"
	 width="32px" height="32px" viewBox="0 0 32 32" style="enable-background:new 0 0 32 32;" xml:space="preserve">
<style type="text/css">
	.st0{fill:#1C66AB;}
	.st1{fill:#FFFFFF;}
</style>
<path class="st0" d="M30.4,5.6c-0.6-1.9-2.1-3.5-4-4C24,0.9,20.3,0,16,0l0,0l0,0C11.7,0,8,0.9,5.7,1.6c-1.9,0.6-3.5,2.1-4,4
	C0.9,8,0,11.7,0,16s0.9,8,1.6,10.4c0.6,1.9,2.1,3.5,4,4C8,31.1,11.7,32,16,32l0,0l0,0c4.3,0,8-0.9,10.3-1.6c1.9-0.6,3.5-2.1,4-4
	C31.1,24,32,20.3,32,16S31.1,8,30.4,5.6z"/>
<g>
	<rect x="9" y="24" class="st1" width="14" height="1"/>
</g>
<g>
	<rect x="7" y="21" class="st1" width="18" height="1"/>
</g>
<polygon class="st1" points="23,16 23,15 22,15 22,14 21,14 21,13 20,13 20,12 19,12 19,11 18,11 18,12 17,12 17,13 16,13 16,14 
	15,14 15,15 14,15 14,16 13,16 13,15 12,15 12,14 11,14 11,15 10,15 10,16 9,16 9,17 8,17 8,18 9,18 10,18 11,18 12,18 13,18 14,18 
	15,18 16,18 17,18 18,18 19,18 20,18 21,18 22,18 23,18 24,18 24,17 24,16 "/>
<g>
	<path class="st1" d="M23.5,8.5v9h-15v-9H23.5 M25,7H7v11v1h18v-1V7L25,7z"/>
</g>
</svg>
