<svg width="60" height="60" viewBox="0 0 60 60" fill="none" xmlns="http://www.w3.org/2000/svg">
<path d="M0 36H60V58C60 59.1046 59.1046 60 58 60H2C0.895432 60 0 59.1046 0 58V36Z" fill="white"/>
<rect opacity="0.6" x="6" y="48" width="48" height="2" fill="#586A74"/>
<rect opacity="0.6" x="6" y="52" width="48" height="2" fill="#586A74"/>
<rect x="6" y="42" width="24" height="3" fill="#586A74"/>
<path d="M0 2C0 0.895431 0.895431 0 2 0H58C59.1046 0 60 0.895431 60 2V36H0V2Z" fill="#586A74"/>
<path d="M15 12C15 10.2857 16.3043 9 18.0435 9C19.7826 9 21.087 10.2857 21.087 12C21.087 13.7143 19.7826 15 18.0435 15C16.3043 15 15 13.7143 15 12ZM33.4783 12L28.4783 19.7143L24.5652 15L15 27H45L33.4783 12Z" fill="white" fill-opacity="0.5"/>
</svg>
