<?xml version="1.0" encoding="utf-8"?>
<!-- Generator: Adobe Illustrator 21.0.0, SVG Export Plug-In . SVG Version: 6.00 Build 0)  -->
<svg version="1.1" id="Layer_1" xmlns="http://www.w3.org/2000/svg" xmlns:xlink="http://www.w3.org/1999/xlink" x="0px" y="0px"
	 width="32px" height="32px" viewBox="0 0 32 32" style="enable-background:new 0 0 32 32;" xml:space="preserve">
<style type="text/css">
	.st0{fill:#1C66AB;}
	.st1{fill:#FFFFFF;}
</style>
<path class="st0" d="M30.4,5.6c-0.6-1.9-2.1-3.5-4-4C24,0.9,20.3,0,16,0l0,0l0,0C11.7,0,8,0.9,5.7,1.6c-1.9,0.6-3.5,2.1-4,4
	C0.9,8,0,11.7,0,16s0.9,8,1.6,10.4c0.6,1.9,2.1,3.5,4,4C8,31.1,11.7,32,16,32l0,0l0,0c4.3,0,8-0.9,10.3-1.6c1.9-0.6,3.5-2.1,4-4
	C31.1,24,32,20.3,32,16S31.1,8,30.4,5.6z"/>
<path class="st1" d="M13.8,7.7H6V10h0.8c0-0.5,0.2-1.2,0.8-1.2h1.6v6.5c0,0.5-0.3,0.8-0.8,0.8H7.9V17h3.9v-0.8h-0.4
	c-0.5,0-0.8-0.3-0.8-0.8V8.8h1.6c0.7,0,0.8,0.7,0.8,1.2h0.8L13.8,7.7L13.8,7.7z"/>
<rect x="6" y="19" class="st1" width="8" height="1"/>
<rect x="6" y="21" class="st1" width="8" height="1"/>
<rect x="6" y="23" class="st1" width="6" height="1"/>
<path class="st1" d="M25.8,7.7H18V10h0.8c0-0.5,0.2-1.2,0.8-1.2h1.6v6.5c0,0.5-0.3,0.8-0.8,0.8H20V17h3.9v-0.8h-0.4
	c-0.5,0-0.8-0.3-0.8-0.8V8.8h1.6c0.6,0,0.7,0.7,0.7,1.2h0.8L25.8,7.7L25.8,7.7z"/>
<rect x="18" y="19" class="st1" width="8" height="1"/>
<rect x="18" y="21" class="st1" width="8" height="1"/>
<rect x="18" y="23" class="st1" width="6" height="1"/>
</svg>
