<?xml version="1.0" encoding="utf-8"?>
<!-- Generator: Adobe Illustrator 21.0.0, SVG Export Plug-In . SVG Version: 6.00 Build 0)  -->
<svg version="1.1" id="Layer_1" xmlns="http://www.w3.org/2000/svg" xmlns:xlink="http://www.w3.org/1999/xlink" x="0px" y="0px"
	 width="32px" height="32px" viewBox="0 0 32 32" style="enable-background:new 0 0 32 32;" xml:space="preserve">
<style type="text/css">
	.st0{fill:#1C66AB;}
	.st1{fill:#FFFFFF;}
</style>
<path class="st0" d="M30.4,5.6c-0.6-1.9-2.1-3.5-4-4C24,0.9,20.3,0,16,0l0,0l0,0C11.7,0,8,0.9,5.7,1.6c-1.9,0.6-3.5,2.1-4,4
	C0.9,8,0,11.7,0,16s0.9,8,1.6,10.4c0.6,1.9,2.1,3.5,4,4C8,31.1,11.7,32,16,32l0,0l0,0c4.3,0,8-0.9,10.3-1.6c1.9-0.6,3.5-2.1,4-4
	C31.1,24,32,20.3,32,16S31.1,8,30.4,5.6z"/>
<g>
	<path class="st1" d="M24.5,9.5v10.8H13.8h-0.6l-0.4,0.4l-2.3,2v-0.9v-1.5H9H7.5V9.5H24.5 M26,8H6v13.8h3V26l4.8-4.2H26V8L26,8z"/>
</g>
<g>
	<path class="st1" d="M16,14c-0.6,0-1,0.4-1,1s0.4,1,1,1s1-0.4,1-1S16.6,14,16,14L16,14z"/>
</g>
<g>
	<path class="st1" d="M12,14c-0.6,0-1,0.4-1,1s0.4,1,1,1s1-0.4,1-1S12.6,14,12,14L12,14z"/>
</g>
<g>
	<path class="st1" d="M20,14c-0.6,0-1,0.4-1,1s0.4,1,1,1s1-0.4,1-1S20.6,14,20,14L20,14z"/>
</g>
</svg>
