<?xml version="1.0" encoding="utf-8"?>
<!-- Generator: Adobe Illustrator 21.0.0, SVG Export Plug-In . SVG Version: 6.00 Build 0)  -->
<svg version="1.1" id="Layer_1" xmlns="http://www.w3.org/2000/svg" xmlns:xlink="http://www.w3.org/1999/xlink" x="0px" y="0px"
	 width="32px" height="32px" viewBox="0 0 32 32" style="enable-background:new 0 0 32 32;" xml:space="preserve">
<style type="text/css">
	.st0{fill:#1C66AB;}
	.st1{fill:#FFFFFF;}
</style>
<path class="st0" d="M30.4,5.6c-0.6-1.9-2.1-3.5-4-4C24,0.9,20.3,0,16,0l0,0l0,0C11.7,0,8,0.9,5.7,1.6c-1.9,0.6-3.5,2.1-4,4
	C0.9,8,0,11.7,0,16s0.9,8,1.6,10.4c0.6,1.9,2.1,3.5,4,4C8,31.1,11.7,32,16,32l0,0l0,0c4.3,0,8-0.9,10.3-1.6c1.9-0.6,3.5-2.1,4-4
	C31.1,24,32,20.3,32,16S31.1,8,30.4,5.6z"/>
<path class="st1" d="M17.3,21l-2.7,2.7c-1.7,1.7-4.5,1.7-6.3,0c-0.8-0.8-1.3-2-1.3-3.1s0.5-2.3,1.3-3.1l3.6-3.6
	c1.8-1.8,4.6-1.7,6.3,0c0.3,0.3,0.6,0.7,0.8,1.1l-1.2,1.2c-0.1-0.5-0.4-0.9-0.7-1.2c-1.1-1.1-2.9-1.1-4.1,0l0,0l-3.7,3.6
	c-1.1,1.1-1.1,3,0,4.1s3,1.1,4.1,0l1.8-1.8C16,21,16.6,21,17.3,21z M17.4,8.3L14.7,11c0.6,0,1.2,0,2,0.2l1.8-1.8
	c1.1-1.1,3-1.1,4.1,0s1.1,3,0,4.1L19,17.1l0,0c-1.1,1.1-2.9,1.2-4.1,0c-0.4-0.4-0.6-0.8-0.7-1.2L14.1,16L13,17.1
	c0.2,0.4,0.5,0.8,0.8,1.1c1.7,1.7,4.5,1.8,6.3,0l3.6-3.6c1.7-1.7,1.7-4.5,0-6.3C22,6.6,19.1,6.6,17.4,8.3z"/>
</svg>
