<?xml version="1.0" encoding="utf-8"?>
<!-- Generator: Adobe Illustrator 19.2.0, SVG Export Plug-In . SVG Version: 6.00 Build 0)  -->
<svg version="1.1" id="Layer_1" xmlns="http://www.w3.org/2000/svg" xmlns:xlink="http://www.w3.org/1999/xlink" x="0px" y="0px"
	 viewBox="0 0 32 32" style="enable-background:new 0 0 32 32;" xml:space="preserve">
<style type="text/css">
	.st0{fill:#5D68FE;}
	.st1{fill:#FFFFFF;}
</style>
<path class="st0" d="M30.4,5.6c-0.6-1.9-2.1-3.5-4-4C24,0.9,20.3,0,16,0l0,0l0,0C11.7,0,8,0.9,5.7,1.6c-1.9,0.6-3.5,2.1-4,4
	C0.9,8,0,11.7,0,16s0.9,8,1.6,10.4c0.6,1.9,2.1,3.5,4,4C8,31.1,11.7,32,16,32l0,0l0,0c4.3,0,8-0.9,10.3-1.6c1.9-0.6,3.5-2.1,4-4
	C31.1,24,32,20.3,32,16S31.1,8,30.4,5.6z"/>
<g>
	<path class="st1" d="M25.9,11.9c-0.2-3.6-2.2-5.6-5.8-5.8C19.1,6,18.7,6,16,6s-3.1,0-4.1,0.1c-3.6,0.2-5.6,2.2-5.8,5.8
		C6,12.9,6,13.3,6,16s0,3.1,0.1,4.1c0.2,3.6,2.2,5.7,5.8,5.8c1.1,0,1.4,0.1,4.1,0.1s3.1,0,4.1-0.1c3.6-0.2,5.7-2.2,5.8-5.8
		c0-1.1,0.1-1.4,0.1-4.1S26,12.9,25.9,11.9z M7.5,12C7.6,9.1,9,7.7,11.9,7.6C13,7.5,13.3,7.5,16,7.5s3,0,4.1,0.1
		c2.9,0.1,4.3,1.5,4.4,4.4c0,1,0.1,1.4,0.1,4.1c0,2.5,0,3-0.1,3.9H24h-1v-1h-1v-1h-1v-1h-1v-1h-1v-1h-1v1h-1v1h-1v1h-1v1h-1v1h-1v-1
		h-1v-1h-1v1h-1v1H9v1H8H7.6c0-0.3-0.1-0.5-0.1-0.8c0-1-0.1-1.4-0.1-4.1C7.4,13.4,7.4,13.1,7.5,12z"/>
	<circle class="st1" cx="12.5" cy="13.5" r="1.5"/>
</g>
</svg>
