<?xml version="1.0" encoding="utf-8"?>
<!-- Generator: Adobe Illustrator 21.0.0, SVG Export Plug-In . SVG Version: 6.00 Build 0)  -->
<svg version="1.1" id="Layer_1" xmlns="http://www.w3.org/2000/svg" xmlns:xlink="http://www.w3.org/1999/xlink" x="0px" y="0px"
	 width="32px" height="32px" viewBox="0 0 32 32" style="enable-background:new 0 0 32 32;" xml:space="preserve">
<style type="text/css">
	.st0{fill:#1C66AB;}
	.st1{fill:#FFFFFF;}
</style>
<path class="st0" d="M30.4,5.6c-0.6-1.9-2.1-3.5-4-4C24,0.9,20.3,0,16,0l0,0l0,0C11.7,0,8,0.9,5.7,1.6c-1.9,0.6-3.5,2.1-4,4
	C0.9,8,0,11.7,0,16s0.9,8,1.6,10.4c0.6,1.9,2.1,3.5,4,4C8,31.1,11.7,32,16,32l0,0l0,0c4.3,0,8-0.9,10.3-1.6c1.9-0.6,3.5-2.1,4-4
	C31.1,24,32,20.3,32,16S31.1,8,30.4,5.6z"/>
<g>
	<path class="st1" d="M13.3,7.4c0.5,0,0.9,0.4,0.9,0.8v6c0,0.3,0.2,0.5,0.5,0.5s0.5-0.2,0.5-0.5v-0.5c0-0.4,0.3-0.7,0.7-0.7H16
		c0.3,0.1,0.6,0.4,0.6,0.7v1.1c0,0.3,0.2,0.5,0.5,0.5s0.5-0.2,0.5-0.5v-0.7c0-0.4,0.3-0.7,0.7-0.7h0.1c0.3,0.1,0.6,0.4,0.6,0.7v1.3
		c0,0.3,0.2,0.5,0.5,0.5s0.5-0.2,0.5-0.5v-0.8c0-0.4,0.3-0.6,0.6-0.6c0.1,0,0.2,0,0.3,0.1c0.6,0.3,1,0.8,1,2.1c0,1.2-0.4,1.9-1,2.9
		c-0.7,1.3-1.6,2.8-1.6,5.5H14c-0.6-3.3-3.3-5.4-5.5-7.7c-0.6-0.6-0.3-1.2,0.4-1.2l0,0c1.1,0,2.6,1.6,3.5,2.8V8.2
		C12.4,7.8,12.8,7.4,13.3,7.4 M13.3,6C12,6,11,7,11,8.2v6.9c-0.8-0.5-1.5-0.8-2.1-0.8c-0.9,0-1.7,0.5-2,1.2
		c-0.3,0.8-0.1,1.7,0.6,2.4c0.3,0.3,0.6,0.6,1,0.9c1.9,1.9,3.7,3.6,4.2,6l0.2,1.1H14h5.3h1.4v-1.4c0-2.3,0.8-3.7,1.4-4.9
		c0.6-1.1,1.1-2,1.1-3.6c0-1.7-0.6-2.8-1.8-3.4c-0.3-0.1-0.6-0.2-0.9-0.2c-0.2,0-0.5,0-0.7,0.1c-0.3-0.4-0.7-0.6-1.2-0.7
		c-0.1,0-0.3,0-0.4,0c-0.3,0-0.7,0.1-0.9,0.2c-0.3-0.3-0.7-0.5-1.1-0.6c-0.1,0-0.3,0-0.4,0c-0.1,0-0.2,0-0.3,0V8.2
		C15.5,7,14.5,6,13.3,6L13.3,6z"/>
</g>
</svg>
