<?xml version="1.0" encoding="utf-8"?>
<!-- Generator: Adobe Illustrator 21.0.0, SVG Export Plug-In . SVG Version: 6.00 Build 0)  -->
<svg version="1.1" id="Layer_1" xmlns="http://www.w3.org/2000/svg" xmlns:xlink="http://www.w3.org/1999/xlink" x="0px" y="0px"
	 width="32px" height="32px" viewBox="0 0 32 32" style="enable-background:new 0 0 32 32;" xml:space="preserve">
<style type="text/css">
	.st0{fill:#1C66AB;}
	.st1{fill:#FFFFFF;}
</style>
<path class="st0" d="M30.4,5.6c-0.6-1.9-2.1-3.5-4-4C24,0.9,20.3,0,16,0l0,0l0,0C11.7,0,8,0.9,5.7,1.6c-1.9,0.6-3.5,2.1-4,4
	C0.9,8,0,11.7,0,16s0.9,8,1.6,10.4c0.6,1.9,2.1,3.5,4,4C8,31.1,11.7,32,16,32l0,0l0,0c4.3,0,8-0.9,10.3-1.6c1.9-0.6,3.5-2.1,4-4
	C31.1,24,32,20.3,32,16S31.1,8,30.4,5.6z"/>
<g>
	<rect x="6" y="22" class="st1" width="20" height="1"/>
</g>
<g>
	<rect x="10.5" y="25" class="st1" width="11" height="1"/>
</g>
<path class="st1" d="M17.1,15.7c-1.2-0.3-2.6-0.5-2.9-1.2c-0.1-0.3-0.1-0.6,0.1-0.9c1.4-2.5,1.6-4.7,0.7-6.1c-0.6-1-1.7-1.5-3-1.5
	S9.6,6.5,9,7.5c-0.9,1.4-0.6,3.5,0.8,6c0.2,0.4,0.3,0.7,0.2,1c-0.3,0.6-1.5,0.8-2.8,1.1H7c-1.9,0.4-2,1.2-2,2.6v0.9h1.4v-0.5
	c0-1.4,0-1.5,0.9-1.7c1.6-0.3,3.2-0.7,3.9-1.9c0.2-0.5,0.3-1.2-0.2-2.1C9.9,11,9.6,9.2,10.2,8.2c0.3-0.5,1-0.8,1.8-0.8
	s1.5,0.3,1.8,0.8c0.6,1,0.4,2.6-0.8,4.7c-0.5,0.9-0.4,1.6-0.2,2.1c0.6,1.2,2.3,1.6,3.9,1.9c0.9,0.2,0.9,0.3,0.9,1.7v0.5H19v-0.8
	C19,16.9,18.9,16,17.1,15.7z"/>
<g>
	<path class="st1" d="M16,8L16,8L16,8L16,8z"/>
	<path class="st1" d="M24.4,15.7c-1.2-0.3-2.6-0.5-2.9-1.2c-0.1-0.3-0.1-0.6,0.1-0.9c1.4-2.5,1.6-4.7,0.7-6.1c-0.6-1-1.7-1.5-3-1.5
		c-0.9,0-1.6,0.2-2.2,0.7l0.7,1.2c0.4-0.3,0.9-0.5,1.5-0.5c0.8,0,1.5,0.3,1.8,0.8c0.6,1,0.4,2.6-0.8,4.7c-0.5,0.9-0.4,1.6-0.2,2.1
		c0.6,1.2,2.3,1.6,3.9,1.9c0.9,0.2,0.9,0.3,0.9,1.7v0.5h1.4v-0.8C26.3,16.9,26.2,16,24.4,15.7z"/>
</g>
</svg>
