<?xml version="1.0" encoding="utf-8"?>
<!-- Generator: Adobe Illustrator 21.0.0, SVG Export Plug-In . SVG Version: 6.00 Build 0)  -->
<svg version="1.1" id="Layer_1" xmlns="http://www.w3.org/2000/svg" xmlns:xlink="http://www.w3.org/1999/xlink" x="0px" y="0px"
	 width="32px" height="32px" viewBox="0 0 32 32" style="enable-background:new 0 0 32 32;" xml:space="preserve">
<style type="text/css">
	.st0{fill:#1C66AB;}
	.st1{fill:#FFFFFF;}
</style>
<path class="st0" d="M30.4,5.6c-0.6-1.9-2.1-3.5-4-4C24,0.9,20.3,0,16,0l0,0l0,0C11.7,0,8,0.9,5.7,1.6c-1.9,0.6-3.5,2.1-4,4
	C0.9,8,0,11.7,0,16s0.9,8,1.6,10.4c0.6,1.9,2.1,3.5,4,4C8,31.1,11.7,32,16,32l0,0l0,0c4.3,0,8-0.9,10.3-1.6c1.9-0.6,3.5-2.1,4-4
	C31.1,24,32,20.3,32,16S31.1,8,30.4,5.6z"/>
<g>
	<g>
		<g>
			<path class="st1" d="M10.5,14.5c0.5,0,1,0.5,1,1s-0.5,1-1,1s-1-0.5-1-1S10,14.5,10.5,14.5 M10.5,13C9.1,13,8,14.1,8,15.5
				S9.1,18,10.5,18s2.5-1.1,2.5-2.5S11.9,13,10.5,13L10.5,13z"/>
		</g>
	</g>
</g>
<g>
	<g>
		<g>
			<path class="st1" d="M10.5,6.5c0.5,0,1,0.5,1,1s-0.5,1-1,1s-1-0.5-1-1S10,6.5,10.5,6.5 M10.5,5C9.1,5,8,6.1,8,7.5S9.1,10,10.5,10
				S13,8.9,13,7.5S11.9,5,10.5,5L10.5,5z"/>
		</g>
	</g>
</g>
<g>
	<g>
		<g>
			<path class="st1" d="M10.5,22.5c0.5,0,1,0.5,1,1s-0.5,1-1,1s-1-0.5-1-1S10,22.5,10.5,22.5 M10.5,21C9.1,21,8,22.1,8,23.5
				S9.1,26,10.5,26s2.5-1.1,2.5-2.5S11.9,21,10.5,21L10.5,21z"/>
		</g>
	</g>
</g>
<rect x="16" y="6" class="st1" width="4" height="1"/>
<rect x="16" y="8" class="st1" width="8" height="1"/>
<rect x="16" y="14" class="st1" width="4" height="1"/>
<rect x="16" y="16" class="st1" width="8" height="1"/>
<rect x="16" y="22" class="st1" width="4" height="1"/>
<rect x="16" y="24" class="st1" width="8" height="1"/>
<rect x="10" y="11" class="st1" width="1" height="1"/>
<rect x="10" y="19" class="st1" width="1" height="1"/>
</svg>
