<svg width="237" height="130" viewBox="0 0 237 130" fill="none" xmlns="http://www.w3.org/2000/svg">
<rect width="237" height="130" fill="#1C66AB" fill-opacity="0.05"/>
<circle cx="119" cy="65" r="35" fill="white"/>
<path d="M119 85C130.046 85 139 76.0457 139 65C139 53.9543 130.046 45 119 45C107.954 45 99 53.9543 99 65C99 76.0457 107.954 85 119 85Z" fill="#87EC00"/>
<path d="M119 82.3913C128.605 82.3913 136.391 74.605 136.391 65C136.391 55.395 128.605 47.6087 119 47.6087C109.395 47.6087 101.609 55.395 101.609 65C101.609 74.605 109.395 82.3913 119 82.3913Z" fill="#152600"/>
<path d="M112.078 59.0174H107.852C107.73 59.0174 107.626 58.8957 107.626 58.7913L107.852 56.7391C107.852 56.6174 107.974 56.513 108.078 56.513H118.339C118.461 56.513 118.461 56.513 118.565 56.6348C118.565 56.6348 118.565 56.6348 118.565 56.7565L118.791 58.8087C118.791 58.9304 118.791 58.9304 118.67 59.0348H114.704V73.2957C114.704 73.4174 114.583 73.5217 114.478 73.5217H112.2C112.078 73.5217 111.974 73.4 111.974 73.2957L112.078 59.0174ZM123.139 66.6522L126.913 61.5217C126.913 61.4 127.035 61.4 127.139 61.4H129.643C129.87 61.4 129.87 61.5217 129.765 61.6261C129.191 62.4261 126.443 65.7304 125.539 66.7739V67L130.322 73.2783C130.443 73.4 130.322 73.5044 130.2 73.5044H127.348C127.226 73.5044 127.122 73.3826 127.122 73.2783C126.322 72.2522 124.27 69.2783 123.243 67.9044V73.2783C123.243 73.4 123.243 73.4 123.122 73.5044H120.722C120.6 73.5044 120.6 73.5044 120.496 73.3826C120.496 73.3826 120.496 73.3826 120.496 73.2609V56.7391C120.496 56.6174 120.496 56.6174 120.617 56.513H123.017C123.139 56.513 123.243 56.6348 123.243 56.7391L123.139 66.6522Z" fill="#87EC00"/>
</svg>
