<svg width="237" height="130" viewBox="0 0 237 130" fill="none" xmlns="http://www.w3.org/2000/svg">
<rect width="237" height="130" fill="#1C66AB" fill-opacity="0.05"/>
<circle cx="119" cy="65" r="35" fill="white"/>
<circle cx="119" cy="65" r="19.15" stroke="#1C66AB" stroke-width="1.7"/>
<path d="M129.15 65C129.15 70.4076 127.943 75.2611 126.033 78.7325C124.107 82.2345 121.584 84.15 119 84.15C116.416 84.15 113.893 82.2345 111.967 78.7325C110.057 75.2611 108.85 70.4076 108.85 65C108.85 59.5924 110.057 54.7389 111.967 51.2675C113.893 47.7655 116.416 45.85 119 45.85C121.584 45.85 124.107 47.7655 126.033 51.2675C127.943 54.7389 129.15 59.5924 129.15 65Z" stroke="#1C66AB" stroke-width="1.7"/>
<path d="M101.5 57H136.5" stroke="#1C66AB" stroke-width="1.7"/>
<path d="M100.5 65H137.5" stroke="#1C66AB" stroke-width="1.7"/>
<path d="M101.5 73H136.5" stroke="#1C66AB" stroke-width="1.7"/>
<path d="M119 46V84.5" stroke="#1C66AB" stroke-width="1.7"/>
</svg>
