<svg width="254" height="153" viewBox="0 0 254 153" fill="none" xmlns="http://www.w3.org/2000/svg">
<rect width="254" height="153" fill="#1C66AB"/>
<path d="M142 56.61H112V59.67H142V56.61Z" fill="white"/>
<path d="M145 64.77H109V67.83H145V64.77Z" fill="white"/>
<path d="M145 72.93H109V75.99H145V72.93Z" fill="white"/>
<path d="M145 81.09H109V84.15H145V81.09Z" fill="white"/>
<path d="M142 89.25H112V92.31H142V89.25Z" fill="white"/>
<path d="M127 133.416C127.6 133.416 128 133.824 128 134.436C128 135.048 127.6 135.456 127 135.456C126.4 135.456 126 135.048 126 134.436C126 133.824 126.4 133.416 127 133.416ZM127 132.396C125.9 132.396 125 133.314 125 134.436C125 135.558 125.9 136.476 127 136.476C128.1 136.476 129 135.558 129 134.436C129 133.314 128.1 132.396 127 132.396Z" fill="white"/>
<path d="M119 133.416C119.6 133.416 120 133.824 120 134.436C120 135.048 119.6 135.456 119 135.456C118.4 135.456 118 135.048 118 134.436C118 133.824 118.4 133.416 119 133.416ZM119 132.396C117.9 132.396 117 133.314 117 134.436C117 135.558 117.9 136.476 119 136.476C120.1 136.476 121 135.558 121 134.436C121 133.314 120.1 132.396 119 132.396Z" fill="white"/>
<path d="M135 133.416C135.6 133.416 136 133.824 136 134.436C136 135.048 135.6 135.456 135 135.456C134.4 135.456 134 135.048 134 134.436C134 133.824 134.4 133.416 135 133.416ZM135 132.396C133.9 132.396 133 133.314 133 134.436C133 135.558 133.9 136.476 135 136.476C136.1 136.476 137 135.558 137 134.436C137 133.314 136.1 132.396 135 132.396Z" fill="white"/>
<path d="M121 16.32H117V18.36H121V16.32Z" fill="white"/>
<path d="M129 16.32H125V18.36H129V16.32Z" fill="white"/>
<path d="M137 16.32H133V18.36H137V16.32Z" fill="white"/>
<path d="M54 16.32H34V20.4H54V16.32Z" fill="white"/>
</svg>
