<svg width="254" height="153" viewBox="0 0 254 153" fill="none" xmlns="http://www.w3.org/2000/svg">
<rect width="254" height="153" fill="#1C66AB" fill-opacity="0.05"/>
<path d="M83 15.3V137.7H15V15.3H83ZM84 14.28H14V138.72H84V14.28Z" fill="#1C66AB"/>
<path d="M239 15.3V137.7H84V15.3H239ZM240 14.28H83V138.72H240V14.28Z" fill="#1C66AB"/>
<path d="M93.8001 61.812H80.1001V63.546H93.8001V61.812Z" fill="#1C66AB"/>
<path d="M88.7001 86.394H80.1001V88.128H88.7001V86.394Z" fill="#1C66AB"/>
<path d="M105.8 68.85H80.1001V71.502H105.8V68.85Z" fill="#1C66AB"/>
<path d="M114.4 74.052H80.1001V76.704H114.4V74.052Z" fill="#1C66AB"/>
<path d="M226 66.198V69.666H229.4V66.198H226ZM228.6 68.85H226.9V67.116H228.6V68.85Z" fill="#1C66AB"/>
<path d="M226 76.704H229.4V73.236H226V76.704ZM226.8 74.052H228.5V75.786H226.8V74.052Z" fill="#1C66AB"/>
<path d="M226 83.742H229.4V80.274H226V83.742ZM226.8 81.09H228.5V82.824H226.8V81.09Z" fill="#1C66AB"/>
</svg>
