<svg width="254" height="150" viewBox="0 0 254 150" fill="none" xmlns="http://www.w3.org/2000/svg">
<rect width="254" height="150" fill="#1C66AB" fill-opacity="0.05"/>
<path d="M236 136C238.209 136 240 134.209 240 132C240 129.791 238.209 128 236 128C233.791 128 232 129.791 232 132C232 134.209 233.791 136 236 136Z" fill="#1C66AB"/>
<path d="M236 126C238.209 126 240 124.209 240 122C240 119.791 238.209 118 236 118C233.791 118 232 119.791 232 122C232 124.209 233.791 126 236 126Z" fill="#1C66AB"/>
<path d="M237 131H235V133H237V131Z" fill="white"/>
<path d="M237 121H235V123H237V121Z" fill="white"/>
<path d="M240 68H230V70H240V68Z" fill="#1C66AB"/>
<path d="M240 72H235V74H240V72Z" fill="#1C66AB"/>
<path d="M240 76H235V78H240V76Z" fill="#1C66AB"/>
<path d="M240 80H235V82H240V80Z" fill="#1C66AB"/>
<path d="M150.3 62H108.3V67H150.3V62Z" fill="#1C66AB"/>
<path d="M159.3 71H99.3V76H159.3V71Z" fill="#1C66AB"/>
<path d="M132.6 52H125.9C125 52 124.2 51.1 124.2 50C124.2 48.9 125 48 125.9 48H132.6C133.5 48 134.3 48.9 134.3 50C134.3 51.1 133.5 52 132.6 52Z" fill="#1C66AB"/>
<path d="M131.8 99H129.8V97H128.8V99H126.8V100H128.8V102H129.8V100H131.8V99Z" fill="#1C66AB"/>
<path d="M159.3 80H99.3V82H159.3V80Z" fill="#1C66AB"/>
<path d="M159.3 85H99.3V87H159.3V85Z" fill="#1C66AB"/>
</svg>
