<svg width="254" height="153" viewBox="0 0 254 153" fill="none" xmlns="http://www.w3.org/2000/svg">
<rect width="254" height="153" fill="#1C66AB" fill-opacity="0.05"/>
<path d="M240 13.26V68.34H176V13.26H240ZM241 12.24H175V69.36H241V12.24Z" fill="#1C66AB"/>
<path d="M240 84.66V139.74H176V84.66H240ZM241 83.64H175V140.76H241V83.64Z" fill="#1C66AB"/>
<path d="M77 13.26V68.34H13V13.26H77ZM78 12.24H12V69.36H78V12.24Z" fill="#1C66AB"/>
<path d="M77 84.66V139.74H13V84.66H77ZM78 83.64H12V140.76H78V83.64Z" fill="#1C66AB"/>
<path d="M159 13.26V68.34H95V13.26H159ZM160 12.24H94V69.36H160V12.24Z" fill="#1C66AB"/>
<path d="M159 84.66V139.74H95V84.66H159ZM160 83.64H94V140.76H160V83.64Z" fill="#1C66AB"/>
<path d="M61 36.72H29V39.78H61V36.72Z" fill="#1C66AB"/>
<path d="M58 42.84H32V45.9H58V42.84Z" fill="#1C66AB"/>
<path d="M48.2999 31.62H41.5999C40.6999 31.62 39.8999 30.702 39.8999 29.58C39.8999 28.458 40.6999 27.54 41.5999 27.54H48.2999C49.1999 27.54 49.9999 28.458 49.9999 29.58C50.0999 30.702 49.2999 31.62 48.2999 31.62Z" fill="#1C66AB"/>
<path d="M47.5 54.06H45.5V52.02H44.5V54.06H42.5V55.08H44.5V57.12H45.5V55.08H47.5V54.06Z" fill="#1C66AB"/>
</svg>
