<svg width="254" height="153" viewBox="0 0 254 153" fill="none" xmlns="http://www.w3.org/2000/svg">
<rect width="254" height="153" fill="#1C66AB" fill-opacity="0.05"/>
<path d="M202 12.24H118V47.94H202V12.24Z" fill="white"/>
<path d="M160.6 20.4H126V22.44H160.6V20.4Z" fill="#1C66AB"/>
<path d="M194 25.5H126V26.52H194V25.5Z" fill="#1C66AB"/>
<path d="M194 29.58H126V30.6H194V29.58Z" fill="#1C66AB"/>
<path d="M160.6 33.66H126V34.68H160.6V33.66Z" fill="#1C66AB"/>
<path opacity="0.1" d="M118 12.24H52V47.94H118V12.24Z" fill="#1C66AB"/>
<path d="M202 58.14H118V93.84H202V58.14Z" fill="white"/>
<path d="M160.6 66.3H126V68.34H160.6V66.3Z" fill="#1C66AB"/>
<path d="M194 71.4H126V72.42H194V71.4Z" fill="#1C66AB"/>
<path d="M194 75.48H126V76.5H194V75.48Z" fill="#1C66AB"/>
<path d="M160.6 79.56H126V80.58H160.6V79.56Z" fill="#1C66AB"/>
<path opacity="0.1" d="M118 58.14H52V93.84H118V58.14Z" fill="#1C66AB"/>
<path d="M202 104.04H118V139.74H202V104.04Z" fill="white"/>
<path d="M160.6 112.2H126V114.24H160.6V112.2Z" fill="#1C66AB"/>
<path d="M194 117.3H126V118.32H194V117.3Z" fill="#1C66AB"/>
<path d="M194 121.38H126V122.4H194V121.38Z" fill="#1C66AB"/>
<path d="M160.6 125.46H126V126.48H160.6V125.46Z" fill="#1C66AB"/>
<path opacity="0.1" d="M118 104.04H52V139.74H118V104.04Z" fill="#1C66AB"/>
</svg>
