<svg width="254" height="150" viewBox="0 0 254 150" fill="none" xmlns="http://www.w3.org/2000/svg">
<rect width="254" height="150" fill="#1C66AB" fill-opacity="0.05"/>
<path d="M113 68H103V70H113V68Z" fill="#1C66AB"/>
<path d="M113 72H108V74H113V72Z" fill="#1C66AB"/>
<path d="M113 76H108V78H113V76Z" fill="#1C66AB"/>
<path d="M113 80H108V82H113V80Z" fill="#1C66AB"/>
<path d="M236 136C238.209 136 240 134.209 240 132C240 129.791 238.209 128 236 128C233.791 128 232 129.791 232 132C232 134.209 233.791 136 236 136Z" fill="#1C66AB"/>
<path d="M236 126C238.209 126 240 124.209 240 122C240 119.791 238.209 118 236 118C233.791 118 232 119.791 232 122C232 124.209 233.791 126 236 126Z" fill="#1C66AB"/>
<path d="M237 131H235V133H237V131Z" fill="white"/>
<path d="M237 121H235V123H237V121Z" fill="white"/>
<path d="M56.8 62H26V67H56.8V62Z" fill="#1C66AB"/>
<path d="M70 71H26V76H70V71Z" fill="#1C66AB"/>
<path d="M34.2999 52H27.5999C26.6999 52 25.8999 51.1 25.8999 50C25.8999 48.9 26.6999 48 27.5999 48H34.2999C35.1999 48 35.9999 48.9 35.9999 50C35.9999 51.1 35.2999 52 34.2999 52Z" fill="#1C66AB"/>
<path d="M31 99H29V97H28V99H26V100H28V102H29V100H31V99Z" fill="#1C66AB"/>
<path d="M70 80H26V82H70V80Z" fill="#1C66AB"/>
<path d="M70 85H26V87H70V85Z" fill="#1C66AB"/>
<path d="M128 0H127V150H128V0Z" fill="#1C66AB"/>
</svg>
