<svg width="254" height="150" viewBox="0 0 254 150" fill="none" xmlns="http://www.w3.org/2000/svg">
<rect width="254" height="150" fill="#1C66AB" fill-opacity="0.05"/>
<path d="M240 13V67H176V13H240ZM241 12H175V68H241V12Z" fill="#1C66AB"/>
<path d="M240 83V137H176V83H240ZM241 82H175V138H241V82Z" fill="#1C66AB"/>
<path d="M77 13V67H13V13H77ZM78 12H12V68H78V12Z" fill="#1C66AB"/>
<path d="M77 83V137H13V83H77ZM78 82H12V138H78V82Z" fill="#1C66AB"/>
<path d="M159 13V67H95V13H159ZM160 12H94V68H160V12Z" fill="#1C66AB"/>
<path d="M159 83V137H95V83H159ZM160 82H94V138H160V82Z" fill="#1C66AB"/>
<path d="M53 50H21V53H53V50Z" fill="#1C66AB"/>
<path d="M47 56H21V59H47V56Z" fill="#1C66AB"/>
<path d="M29.4 45H22.7C21.8 45 21 44.1 21 43C21 41.9 21.8 41 22.7 41H29.4C30.3 41 31.1 41.9 31.1 43C31.1 44.1 30.4 45 29.4 45Z" fill="#1C66AB"/>
<path d="M69 56H67V54H66V56H64V57H66V59H67V57H69V56Z" fill="#1C66AB"/>
</svg>
