<svg width="254" height="153" viewBox="0 0 254 153" fill="none" xmlns="http://www.w3.org/2000/svg">
<rect width="254" height="153" fill="#1C66AB" fill-opacity="0.05"/>
<path d="M107 87.72H97V89.76H107V87.72Z" fill="#1C66AB"/>
<path d="M107 92.3099H97V93.3299H107V92.3099Z" fill="#1C66AB"/>
<path d="M123 87.72H113V89.76H123V87.72Z" fill="#1C66AB"/>
<path d="M123 92.3099H113V93.3299H123V92.3099Z" fill="#1C66AB"/>
<path d="M140 87.72H130V89.76H140V87.72Z" fill="#1C66AB"/>
<path d="M140 92.3099H130V93.3299H140V92.3099Z" fill="#1C66AB"/>
<path d="M157 87.72H147V89.76H157V87.72Z" fill="#1C66AB"/>
<path d="M157 92.3099H147V93.3299H157V92.3099Z" fill="#1C66AB"/>
<path d="M123 64.26H97V69.36H123V64.26Z" fill="#1C66AB"/>
<path d="M157 73.4399H97V78.5399H157V73.4399Z" fill="#1C66AB"/>
<path d="M120 108.12H100C98.4 108.12 97 106.794 97 105.06C97 103.326 98.4 102 100 102H120C121.6 102 123 103.326 123 105.06C123 106.794 121.6 108.12 120 108.12Z" fill="#1C66AB"/>
<path d="M105 54.06H99C97.9 54.06 97 53.142 97 52.02C97 50.898 97.9 49.98 99 49.98H105C106.1 49.98 107 50.898 107 52.02C107 53.142 106.1 54.06 105 54.06Z" fill="#1C66AB"/>
</svg>
