<svg width="254" height="150" viewBox="0 0 254 150" fill="none" xmlns="http://www.w3.org/2000/svg">
<rect width="254" height="150" fill="#1C66AB" fill-opacity="0.05"/>
<path d="M154 44H144V46H154V44Z" fill="#1C66AB"/>
<path d="M154 48.5H144V49.5H154V48.5Z" fill="#1C66AB"/>
<path d="M170 44H160V46H170V44Z" fill="#1C66AB"/>
<path d="M170 48.5H160V49.5H170V48.5Z" fill="#1C66AB"/>
<path d="M187 44H177V46H187V44Z" fill="#1C66AB"/>
<path d="M187 48.5H177V49.5H187V48.5Z" fill="#1C66AB"/>
<path d="M204 44H194V46H204V44Z" fill="#1C66AB"/>
<path d="M204 48.5H194V49.5H204V48.5Z" fill="#1C66AB"/>
<path d="M167 64H147C145.4 64 144 62.7 144 61C144 59.3 145.4 58 147 58H167C168.6 58 170 59.3 170 61C170 62.7 168.6 64 167 64Z" fill="#1C66AB"/>
<path d="M76 44H50V49H76V44Z" fill="#1C66AB"/>
<path d="M110 53H50V58H110V53Z" fill="#1C66AB"/>
<path d="M110 62H50V64H110V62Z" fill="#1C66AB"/>
<path d="M110 67H50V69H110V67Z" fill="#1C66AB"/>
<path d="M110 72H50V74H110V72Z" fill="#1C66AB"/>
<path d="M58 34H52C50.9 34 50 33.1 50 32C50 30.9 50.9 30 52 30H58C59.1 30 60 30.9 60 32C60 33.1 59.1 34 58 34Z" fill="#1C66AB"/>
<path d="M200 122C202.209 122 204 120.209 204 118C204 115.791 202.209 114 200 114C197.791 114 196 115.791 196 118C196 120.209 197.791 122 200 122Z" fill="#1C66AB"/>
<path d="M201 117H199V119H201V117Z" fill="white"/>
<path d="M54 122C56.2091 122 58 120.209 58 118C58 115.791 56.2091 114 54 114C51.7909 114 50 115.791 50 118C50 120.209 51.7909 122 54 122Z" fill="#1C66AB"/>
<path d="M55 117H53V119H55V117Z" fill="white"/>
<path d="M190 87V149H64V87H190ZM191 86H63V150H191V86Z" fill="#1C66AB"/>
<path d="M210 87H253V86H209V150H244.2V149H210V87Z" fill="#1C66AB"/>
<path d="M44 87H1V86H45V150H9.8V149H44V87Z" fill="#1C66AB"/>
</svg>
