<svg width="254" height="153" viewBox="0 0 254 153" fill="none" xmlns="http://www.w3.org/2000/svg">
<rect width="254" height="153" fill="#1C66AB" fill-opacity="0.05"/>
<path d="M132 140.76C134.209 140.76 136 138.933 136 136.68C136 134.427 134.209 132.6 132 132.6C129.791 132.6 128 134.427 128 136.68C128 138.933 129.791 140.76 132 140.76Z" fill="#1C66AB"/>
<path d="M122 140.76C124.209 140.76 126 138.933 126 136.68C126 134.427 124.209 132.6 122 132.6C119.791 132.6 118 134.427 118 136.68C118 138.933 119.791 140.76 122 140.76Z" fill="#1C66AB"/>
<path d="M133 135.66H131V137.7H133V135.66Z" fill="white"/>
<path d="M123 135.66H121V137.7H123V135.66Z" fill="white"/>
<path d="M79 26.52V102H15V26.52H79ZM80 25.5H14V103.02H80V25.5Z" fill="#1C66AB"/>
<path d="M62 108.12H32V113.22H62V108.12Z" fill="#1C66AB"/>
<path d="M54 117.3H40V119.34H54V117.3Z" fill="#1C66AB"/>
<path d="M239 26.52V102H175V26.52H239ZM240 25.5H174V103.02H240V25.5Z" fill="#1C66AB"/>
<path d="M222 108.12H192V113.22H222V108.12Z" fill="#1C66AB"/>
<path d="M214 117.3H200V119.34H214V117.3Z" fill="#1C66AB"/>
<path d="M159 26.52V102H95V26.52H159ZM160 25.5H94V103.02H160V25.5Z" fill="#1C66AB"/>
<path d="M142 108.12H112V113.22H142V108.12Z" fill="#1C66AB"/>
<path d="M134 117.3H120V119.34H134V117.3Z" fill="#1C66AB"/>
</svg>
