<svg width="254" height="153" viewBox="0 0 254 153" fill="none" xmlns="http://www.w3.org/2000/svg">
<rect width="254" height="153" fill="#1C66AB" fill-opacity="0.05"/>
<path d="M26 140.76C28.2091 140.76 30 138.933 30 136.68C30 134.427 28.2091 132.6 26 132.6C23.7909 132.6 22 134.427 22 136.68C22 138.933 23.7909 140.76 26 140.76Z" fill="#1C66AB"/>
<path d="M16 140.76C18.2091 140.76 20 138.933 20 136.68C20 134.427 18.2091 132.6 16 132.6C13.7909 132.6 12 134.427 12 136.68C12 138.933 13.7909 140.76 16 140.76Z" fill="#1C66AB"/>
<path d="M27 135.66H25V137.7H27V135.66Z" fill="white"/>
<path d="M17 135.66H15V137.7H17V135.66Z" fill="white"/>
<path d="M37.9001 63.24H14.1001V68.34H37.9001V63.24Z" fill="#1C66AB"/>
<path d="M48.1001 72.42H14.1001V77.52H48.1001V72.42Z" fill="#1C66AB"/>
<path d="M22.4 53.04H15.7C14.8 53.04 14 52.122 14 51C14 49.878 14.8 48.96 15.7 48.96H22.4C23.3 48.96 24.1 49.878 24.1 51C24.1 52.122 23.4 53.04 22.4 53.04Z" fill="#1C66AB"/>
<path d="M19.1001 100.98H17.1001V98.94H16.1001V100.98H14.1001V102H16.1001V104.04H17.1001V102H19.1001V100.98Z" fill="#1C66AB"/>
<path d="M48.1001 81.6H14.1001V83.64H48.1001V81.6Z" fill="#1C66AB"/>
<path d="M48.1001 86.7H14.1001V88.74H48.1001V86.7Z" fill="#1C66AB"/>
<path d="M122.9 63.24H99.1001V68.34H122.9V63.24Z" fill="#1C66AB"/>
<path d="M133.1 72.42H99.1001V77.52H133.1V72.42Z" fill="#1C66AB"/>
<path d="M107.4 53.04H100.7C99.8 53.04 99 52.122 99 51C99 49.878 99.8 48.96 100.7 48.96H107.4C108.3 48.96 109.1 49.878 109.1 51C109.1 52.122 108.4 53.04 107.4 53.04Z" fill="#1C66AB"/>
<path d="M104.1 100.98H102.1V98.94H101.1V100.98H99.1001V102H101.1V104.04H102.1V102H104.1V100.98Z" fill="#1C66AB"/>
<path d="M133.1 81.6H99.1001V83.64H133.1V81.6Z" fill="#1C66AB"/>
<path d="M133.1 86.7H99.1001V88.74H133.1V86.7Z" fill="#1C66AB"/>
<path d="M207.9 63.24H184.1V68.34H207.9V63.24Z" fill="#1C66AB"/>
<path d="M218.1 72.42H184.1V77.52H218.1V72.42Z" fill="#1C66AB"/>
<path d="M192.4 53.04H185.7C184.8 53.04 184 52.122 184 51C184 49.878 184.8 48.96 185.7 48.96H192.4C193.3 48.96 194.1 49.878 194.1 51C194.1 52.122 193.4 53.04 192.4 53.04Z" fill="#1C66AB"/>
<path d="M189.1 100.98H187.1V98.94H186.1V100.98H184.1V102H186.1V104.04H187.1V102H189.1V100.98Z" fill="#1C66AB"/>
<path d="M218.1 81.6H184.1V83.64H218.1V81.6Z" fill="#1C66AB"/>
<path d="M218.1 86.7H184.1V88.74H218.1V86.7Z" fill="#1C66AB"/>
<path d="M85 0H84V151.98H85V0Z" fill="#1C66AB"/>
<path d="M170 0H169V151.98H170V0Z" fill="#1C66AB"/>
</svg>
