<svg width="254" height="150" viewBox="0 0 254 150" fill="none" xmlns="http://www.w3.org/2000/svg">
<rect width="254" height="150" fill="#1C66AB" fill-opacity="0.05"/>
<path d="M236 136C238.209 136 240 134.209 240 132C240 129.791 238.209 128 236 128C233.791 128 232 129.791 232 132C232 134.209 233.791 136 236 136Z" fill="#1C66AB"/>
<path d="M226 136C228.209 136 230 134.209 230 132C230 129.791 228.209 128 226 128C223.791 128 222 129.791 222 132C222 134.209 223.791 136 226 136Z" fill="#1C66AB"/>
<path d="M237 131H235V133H237V131Z" fill="white"/>
<path d="M227 131H225V133H227V131Z" fill="white"/>
<path d="M86 62H44V67H86V62Z" fill="#1C66AB"/>
<path d="M104 71H44V76H104V71Z" fill="#1C66AB"/>
<path d="M52.2999 52H45.5999C44.6999 52 43.8999 51.1 43.8999 50C43.8999 48.9 44.6999 48 45.5999 48H52.2999C53.1999 48 53.9999 48.9 53.9999 50C53.9999 51.1 53.2999 52 52.2999 52Z" fill="#1C66AB"/>
<path d="M49 99H47V97H46V99H44V100H46V102H47V100H49V99Z" fill="#1C66AB"/>
<path d="M104 80H44V82H104V80Z" fill="#1C66AB"/>
<path d="M104 85H44V87H104V85Z" fill="#1C66AB"/>
<path d="M240 68H230V70H240V68Z" fill="#1C66AB"/>
<path d="M240 72H235V74H240V72Z" fill="#1C66AB"/>
<path d="M240 76H235V78H240V76Z" fill="#1C66AB"/>
<path d="M240 80H235V82H240V80Z" fill="#1C66AB"/>
<path d="M77 0H76V150H77V0Z" fill="#1C66AB"/>
</svg>
