<svg width="254" height="153" viewBox="0 0 254 153" fill="none" xmlns="http://www.w3.org/2000/svg">
<rect width="254" height="153" fill="#1C66AB" fill-opacity="0.05"/>
<path d="M201 13.26V46.92H53V13.26H201ZM202 12.24H52V47.94H202V12.24Z" fill="#1C66AB"/>
<path d="M201 105.06V138.72H53V105.06H201ZM202 104.04H52V139.74H202V104.04Z" fill="#1C66AB"/>
<path d="M90 112.2H60V114.24H90V112.2Z" fill="#1C66AB"/>
<path d="M194 117.3H60V118.32H194V117.3Z" fill="#1C66AB"/>
<path d="M194 121.38H60V122.4H194V121.38Z" fill="#1C66AB"/>
<path d="M127 125.46H60V126.48H127V125.46Z" fill="#1C66AB"/>
<path d="M62 128.52H61V131.58H62V128.52Z" fill="#1C66AB"/>
<path d="M63.0001 129.54H60.1001V130.56H63.0001V129.54Z" fill="#1C66AB"/>
<path d="M201 59.16V92.82H53V59.16H201ZM202 58.14H52V93.84H202V58.14Z" fill="#1C66AB"/>
<path d="M90 66.3H60V68.34H90V66.3Z" fill="#1C66AB"/>
<path d="M194 71.4H60V72.42H194V71.4Z" fill="#1C66AB"/>
<path d="M194 75.48H60V76.5H194V75.48Z" fill="#1C66AB"/>
<path d="M127 79.56H60V80.58H127V79.56Z" fill="#1C66AB"/>
<path d="M62 82.62H61V85.68H62V82.62Z" fill="#1C66AB"/>
<path d="M63.0001 83.64H60.1001V84.66H63.0001V83.64Z" fill="#1C66AB"/>
<path d="M90.1001 20.4H60.1001V24.48H90.1001V20.4Z" fill="#1C66AB"/>
<path d="M194 29.58H60.1001V31.62H194V29.58Z" fill="#1C66AB"/>
<path d="M194 34.68H60.1001V36.72H194V34.68Z" fill="#1C66AB"/>
</svg>
