<svg width="254" height="153" viewBox="0 0 254 153" fill="none" xmlns="http://www.w3.org/2000/svg">
<rect width="254" height="153" fill="#1C66AB" fill-opacity="0.05"/>
<path d="M121 13.26V47.94H53V13.26H121ZM122 12.24H52V48.96H122V12.24Z" fill="#1C66AB"/>
<path d="M112 55.08H52V59.16H112V55.08Z" fill="#1C66AB"/>
<path d="M122 64.26H52V66.3H122V64.26Z" fill="#1C66AB"/>
<path d="M122 69.36H52V71.4H122V69.36Z" fill="#1C66AB"/>
<path d="M201 13.26V47.94H133V13.26H201ZM202 12.24H132V48.96H202V12.24Z" fill="#1C66AB"/>
<path d="M192 55.08H132V59.16H192V55.08Z" fill="#1C66AB"/>
<path d="M202 64.26H132V66.3H202V64.26Z" fill="#1C66AB"/>
<path d="M202 69.36H132V71.4H202V69.36Z" fill="#1C66AB"/>
<path d="M121 82.62V117.3H53V82.62H121ZM122 81.6H52V118.32H122V81.6Z" fill="#1C66AB"/>
<path d="M112 124.44H52V128.52H112V124.44Z" fill="#1C66AB"/>
<path d="M122 133.62H52V135.66H122V133.62Z" fill="#1C66AB"/>
<path d="M122 138.72H52V140.76H122V138.72Z" fill="#1C66AB"/>
<path d="M201 82.62V117.3H133V82.62H201ZM202 81.6H132V118.32H202V81.6Z" fill="#1C66AB"/>
<path d="M192 124.44H132V128.52H192V124.44Z" fill="#1C66AB"/>
<path d="M202 133.62H132V135.66H202V133.62Z" fill="#1C66AB"/>
<path d="M202 138.72H132V140.76H202V138.72Z" fill="#1C66AB"/>
</svg>
