<svg width="254" height="150" viewBox="0 0 254 150" fill="none" xmlns="http://www.w3.org/2000/svg">
<rect width="254" height="150" fill="#1C66AB" fill-opacity="0.05"/>
<path d="M169 94H159V96H169V94Z" fill="#1C66AB"/>
<path d="M169 98.5H159V99.5H169V98.5Z" fill="#1C66AB"/>
<path d="M185 94H175V96H185V94Z" fill="#1C66AB"/>
<path d="M185 98.5H175V99.5H185V98.5Z" fill="#1C66AB"/>
<path d="M202 94H192V96H202V94Z" fill="#1C66AB"/>
<path d="M202 98.5H192V99.5H202V98.5Z" fill="#1C66AB"/>
<path d="M219 94H209V96H219V94Z" fill="#1C66AB"/>
<path d="M219 98.5H209V99.5H219V98.5Z" fill="#1C66AB"/>
<path d="M185 54H159V59H185V54Z" fill="#1C66AB"/>
<path d="M219 63H159V68H219V63Z" fill="#1C66AB"/>
<path d="M219 72H159V74H219V72Z" fill="#1C66AB"/>
<path d="M219 77H159V79H219V77Z" fill="#1C66AB"/>
<path d="M219 82H159V84H219V82Z" fill="#1C66AB"/>
<path d="M182 114H162C160.4 114 159 112.7 159 111C159 109.3 160.3 108 162 108H182C183.7 108 185 109.3 185 111C185 112.7 183.7 114 182 114Z" fill="#1C66AB"/>
<path d="M167 44H161C159.9 44 159 43.1 159 42C159 40.9 159.9 40 161 40H167C168.1 40 169 40.9 169 42C169 43.1 168.1 44 167 44Z" fill="#1C66AB"/>
<path d="M124.5 0H123.5V150H124.5V0Z" fill="#1C66AB"/>
<path d="M124 74.5H0V75.5H124V74.5Z" fill="#1C66AB"/>
</svg>
