<svg width="254" height="153" viewBox="0 0 254 153" fill="none" xmlns="http://www.w3.org/2000/svg">
<rect width="254" height="153" fill="#1C66AB" fill-opacity="0.05"/>
<path d="M241 13.26V54.06H177V13.26H241ZM242 12.24H176V55.08H242V12.24Z" fill="#1C66AB"/>
<path d="M224 60.18H194V65.28H224V60.18Z" fill="#1C66AB"/>
<path d="M216 69.36H202V71.4H216V69.36Z" fill="#1C66AB"/>
<path d="M241 82.62V123.42H177V82.62H241ZM242 81.6H176V124.44H242V81.6Z" fill="#1C66AB"/>
<path d="M224 129.54H194V134.64H224V129.54Z" fill="#1C66AB"/>
<path d="M216 138.72H202V140.76H216V138.72Z" fill="#1C66AB"/>
<g opacity="0.5">
<path opacity="0.5" d="M77 13.26V54.06H13V13.26H77ZM78 12.24H12V55.08H78V12.24Z" fill="#1C66AB"/>
<path opacity="0.5" d="M60 60.18H30V65.28H60V60.18Z" fill="#1C66AB"/>
<path opacity="0.5" d="M52 69.36H38V71.4H52V69.36Z" fill="#1C66AB"/>
</g>
<path d="M77 82.62V123.42H13V82.62H77ZM78 81.6H12V124.44H78V81.6Z" fill="#1C66AB"/>
<path d="M60 129.54H30V134.64H60V129.54Z" fill="#1C66AB"/>
<path d="M52 138.72H38V140.76H52V138.72Z" fill="#1C66AB"/>
<path d="M159 13.26V54.06H95V13.26H159ZM160 12.24H94V55.08H160V12.24Z" fill="#1C66AB"/>
<path d="M142 60.18H112V65.28H142V60.18Z" fill="#1C66AB"/>
<path d="M134 69.36H120V71.4H134V69.36Z" fill="#1C66AB"/>
<path d="M159 82.62V123.42H95V82.62H159ZM160 81.6H94V124.44H160V81.6Z" fill="#1C66AB"/>
<path d="M142 129.54H112V134.64H142V129.54Z" fill="#1C66AB"/>
<path d="M134 138.72H120V140.76H134V138.72Z" fill="#1C66AB"/>
</svg>
