<svg width="254" height="150" viewBox="0 0 254 150" fill="none" xmlns="http://www.w3.org/2000/svg">
<rect width="254" height="150" fill="#1C66AB" fill-opacity="0.05"/>
<path d="M240 13V67H176V13H240ZM241 12H175V68H241V12Z" fill="#1C66AB"/>
<path d="M240 83V137H176V83H240ZM241 82H175V138H241V82Z" fill="#1C66AB"/>
<path d="M77 13V67H13V13H77ZM78 12H12V68H78V12Z" fill="#1C66AB"/>
<path d="M77 83V137H13V83H77ZM78 82H12V138H78V82Z" fill="#1C66AB"/>
<path d="M159 13V67H95V13H159ZM160 12H94V68H160V12Z" fill="#1C66AB"/>
<path d="M159 83V137H95V83H159ZM160 82H94V138H160V82Z" fill="#1C66AB"/>
</svg>
