<svg width="254" height="153" viewBox="0 0 254 153" fill="none" xmlns="http://www.w3.org/2000/svg">
<rect width="254" height="153" fill="#1C66AB"/>
<path d="M54 16.32H34V20.4H54V16.32Z" fill="white"/>
<path d="M147.5 67.32H143.5V69.36H147.5V67.32Z" fill="white"/>
<path d="M155.5 67.32H151.5V69.36H155.5V67.32Z" fill="white"/>
<path d="M163.5 67.32H159.5V69.36H163.5V67.32Z" fill="white"/>
<path d="M173.5 16.32H143.5V19.38H173.5V16.32Z" fill="white"/>
<path d="M179.5 24.48H143.5V27.54H179.5V24.48Z" fill="white"/>
<path d="M179.5 32.64H143.5V35.7H179.5V32.64Z" fill="white"/>
<path d="M179.5 40.8H143.5V43.86H179.5V40.8Z" fill="white"/>
<path d="M173.5 48.96H143.5V52.02H173.5V48.96Z" fill="white"/>
<path d="M101 133.62C101.6 133.62 102 134.028 102 134.64C102 135.252 101.6 135.66 101 135.66C100.4 135.66 100 135.252 100 134.64C100 134.028 100.4 133.62 101 133.62ZM101 132.6C99.9 132.6 99 133.518 99 134.64C99 135.762 99.9 136.68 101 136.68C102.1 136.68 103 135.762 103 134.64C103 133.518 102.1 132.6 101 132.6Z" fill="white"/>
<path d="M93 133.62C93.6 133.62 94 134.028 94 134.64C94 135.252 93.6 135.66 93 135.66C92.4 135.66 92 135.252 92 134.64C92 134.028 92.4 133.62 93 133.62ZM93 132.6C91.9 132.6 91 133.518 91 134.64C91 135.762 91.9 136.68 93 136.68C94.1 136.68 95 135.762 95 134.64C95 133.518 94.1 132.6 93 132.6Z" fill="white"/>
<path d="M109 133.62C109.6 133.62 110 134.028 110 134.64C110 135.252 109.6 135.66 109 135.66C108.4 135.66 108 135.252 108 134.64C108 134.028 108.4 133.62 109 133.62ZM109 132.6C107.9 132.6 107 133.518 107 134.64C107 135.762 107.9 136.68 109 136.68C110.1 136.68 111 135.762 111 134.64C111 133.518 110.1 132.6 109 132.6Z" fill="white"/>
<path d="M127.5 16.32H126.5V136.68H127.5V16.32Z" fill="white"/>
</svg>
