<svg width="254" height="153" viewBox="0 0 254 153" fill="none" xmlns="http://www.w3.org/2000/svg">
<rect width="254" height="153" fill="#1C66AB" fill-opacity="0.05"/>
<path d="M34 16.32H14V20.4H34V16.32Z" fill="#1C66AB"/>
<path d="M18 98.94H14V100.98H18V98.94Z" fill="#1C66AB"/>
<path d="M26 98.94H22V100.98H26V98.94Z" fill="#1C66AB"/>
<path d="M34 98.94H30V100.98H34V98.94Z" fill="#1C66AB"/>
<path d="M44 47.94H14V51H44V47.94Z" fill="#1C66AB"/>
<path d="M50 56.1H14V59.16H50V56.1Z" fill="#1C66AB"/>
<path d="M50 64.26H14V67.32H50V64.26Z" fill="#1C66AB"/>
<path d="M50 72.42H14V75.48H50V72.42Z" fill="#1C66AB"/>
<path d="M44 80.58H14V83.64H44V80.58Z" fill="#1C66AB"/>
<path d="M24 133.62C24.6 133.62 25 134.028 25 134.64C25 135.252 24.6 135.66 24 135.66C23.4 135.66 23 135.252 23 134.64C23 134.028 23.4 133.62 24 133.62ZM24 132.6C22.9 132.6 22 133.518 22 134.64C22 135.762 22.9 136.68 24 136.68C25.1 136.68 26 135.762 26 134.64C26 133.518 25.1 132.6 24 132.6Z" fill="#1C66AB"/>
<path d="M16 133.62C16.6 133.62 17 134.028 17 134.64C17 135.252 16.6 135.66 16 135.66C15.4 135.66 15 135.252 15 134.64C15 134.028 15.4 133.62 16 133.62ZM16 132.6C14.9 132.6 14 133.518 14 134.64C14 135.762 14.9 136.68 16 136.68C17.1 136.68 18 135.762 18 134.64C18 133.518 17.1 132.6 16 132.6Z" fill="#1C66AB"/>
<path d="M32 133.62C32.6 133.62 33 134.028 33 134.64C33 135.252 32.6 135.66 32 135.66C31.4 135.66 31 135.252 31 134.64C31 134.028 31.4 133.62 32 133.62ZM32 132.6C30.9 132.6 30 133.518 30 134.64C30 135.762 30.9 136.68 32 136.68C33.1 136.68 34 135.762 34 134.64C34 133.518 33.1 132.6 32 132.6Z" fill="#1C66AB"/>
<path d="M250 0H64V153H250C252.2 153 254 151.164 254 148.92V4.08C254 1.836 252.2 0 250 0Z" fill="#1C66AB"/>
</svg>
