<svg width="254" height="153" viewBox="0 0 254 153" fill="none" xmlns="http://www.w3.org/2000/svg">
<g clip-path="url(#clip0)">
<rect width="254" height="153" fill="#1C66AB" fill-opacity="0.05"/>
<path d="M25 118.32H15V120.36H25V118.32Z" fill="#1C66AB"/>
<path d="M25 122.91H15V123.93H25V122.91Z" fill="#1C66AB"/>
<path d="M41 118.32H31V120.36H41V118.32Z" fill="#1C66AB"/>
<path d="M41 122.91H31V123.93H41V122.91Z" fill="#1C66AB"/>
<path d="M58 118.32H48V120.36H58V118.32Z" fill="#1C66AB"/>
<path d="M58 122.91H48V123.93H58V122.91Z" fill="#1C66AB"/>
<path d="M75 118.32H65V120.36H75V118.32Z" fill="#1C66AB"/>
<path d="M75 122.91H65V123.93H75V122.91Z" fill="#1C66AB"/>
<path d="M41 99.96H15V105.06H41V99.96Z" fill="#1C66AB"/>
<path d="M75 109.14H15V114.24H75V109.14Z" fill="#1C66AB"/>
<path d="M38 138.72H18C16.4 138.72 15 137.394 15 135.66C15 133.926 16.3 132.6 18 132.6H38C39.7 132.6 41 133.926 41 135.66C41 137.394 39.7 138.72 38 138.72Z" fill="#1C66AB"/>
<path d="M23 89.76H17C15.9 89.76 15 88.842 15 87.7201C15 86.5981 15.9 85.6801 17 85.6801H23C24.1 85.6801 25 86.5981 25 87.7201C25 88.842 24.1 89.76 23 89.76Z" fill="#1C66AB"/>
<path d="M90.5 71.4H89.5V153H90.5V71.4Z" fill="#1C66AB"/>
<path d="M90.5 70.89H0.5V71.91H90.5V70.89Z" fill="#1C66AB"/>
<path d="M236 138.72C238.209 138.72 240 136.893 240 134.64C240 132.387 238.209 130.56 236 130.56C233.791 130.56 232 132.387 232 134.64C232 136.893 233.791 138.72 236 138.72Z" fill="#1C66AB"/>
<path d="M226 138.72C228.209 138.72 230 136.893 230 134.64C230 132.387 228.209 130.56 226 130.56C223.791 130.56 222 132.387 222 134.64C222 136.893 223.791 138.72 226 138.72Z" fill="#1C66AB"/>
<path d="M237 133.62H235V135.66H237V133.62Z" fill="white"/>
<path d="M227 133.62H225V135.66H227V133.62Z" fill="white"/>
</g>
<defs>
<clipPath id="clip0">
<rect width="254" height="153" fill="white"/>
</clipPath>
</defs>
</svg>
