<svg width="254" height="153" viewBox="0 0 254 153" fill="none" xmlns="http://www.w3.org/2000/svg">
<rect width="254" height="153" fill="#1C66AB" fill-opacity="0.05"/>
<path d="M45 95.88H35V97.92H45V95.88Z" fill="#1C66AB"/>
<path d="M45 100.47H35V101.49H45V100.47Z" fill="#1C66AB"/>
<path d="M61 95.88H51V97.92H61V95.88Z" fill="#1C66AB"/>
<path d="M61 100.47H51V101.49H61V100.47Z" fill="#1C66AB"/>
<path d="M78 95.88H68V97.92H78V95.88Z" fill="#1C66AB"/>
<path d="M78 100.47H68V101.49H78V100.47Z" fill="#1C66AB"/>
<path d="M95 95.88H85V97.92H95V95.88Z" fill="#1C66AB"/>
<path d="M95 100.47H85V101.49H95V100.47Z" fill="#1C66AB"/>
<path d="M61 55.0801H35V60.1801H61V55.0801Z" fill="#1C66AB"/>
<path d="M95 64.26H35V69.36H95V64.26Z" fill="#1C66AB"/>
<path d="M95 73.4401H35V75.4801H95V73.4401Z" fill="#1C66AB"/>
<path d="M95 78.54H35V80.58H95V78.54Z" fill="#1C66AB"/>
<path d="M95 83.64H35V85.68H95V83.64Z" fill="#1C66AB"/>
<path d="M58 116.28H38C36.4 116.28 35 114.954 35 113.22C35 111.486 36.3 110.16 38 110.16H58C59.7 110.16 61 111.486 61 113.22C61 114.954 59.7 116.28 58 116.28Z" fill="#1C66AB"/>
<path d="M43 44.88H37C35.9 44.88 35 43.962 35 42.84C35 41.718 35.9 40.8 37 40.8H43C44.1 40.8 45 41.718 45 42.84C45 43.962 44.1 44.88 43 44.88Z" fill="#1C66AB"/>
<path d="M130.5 0H129.5V153H130.5V0Z" fill="#1C66AB"/>
<path d="M254 77.01V75.99L130 75.99V77.01L254 77.01Z" fill="#1C66AB"/>
</svg>
