<svg width="254" height="153" viewBox="0 0 254 153" fill="none" xmlns="http://www.w3.org/2000/svg">
<rect width="254" height="153" fill="#1C66AB"/>
<path d="M54 16.32H34V20.4H54V16.32Z" fill="white"/>
<path d="M38 98.94H34V100.98H38V98.94Z" fill="white"/>
<path d="M46 98.94H42V100.98H46V98.94Z" fill="white"/>
<path d="M54 98.94H50V100.98H54V98.94Z" fill="white"/>
<path d="M64 47.94H34V51H64V47.94Z" fill="white"/>
<path d="M70 56.1H34V59.16H70V56.1Z" fill="white"/>
<path d="M70 64.26H34V67.32H70V64.26Z" fill="white"/>
<path d="M70 72.42H34V75.48H70V72.42Z" fill="white"/>
<path d="M64 80.58H34V83.64H64V80.58Z" fill="white"/>
<path d="M44 133.62C44.6 133.62 45 134.028 45 134.64C45 135.252 44.6 135.66 44 135.66C43.4 135.66 43 135.252 43 134.64C43 134.028 43.4 133.62 44 133.62ZM44 132.6C42.9 132.6 42 133.518 42 134.64C42 135.762 42.9 136.68 44 136.68C45.1 136.68 46 135.762 46 134.64C46 133.518 45.1 132.6 44 132.6Z" fill="white"/>
<path d="M36 133.62C36.6 133.62 37 134.028 37 134.64C37 135.252 36.6 135.66 36 135.66C35.4 135.66 35 135.252 35 134.64C35 134.028 35.4 133.62 36 133.62ZM36 132.6C34.9 132.6 34 133.518 34 134.64C34 135.762 34.9 136.68 36 136.68C37.1 136.68 38 135.762 38 134.64C38 133.518 37.1 132.6 36 132.6Z" fill="white"/>
<path d="M52 133.62C52.6 133.62 53 134.028 53 134.64C53 135.252 52.6 135.66 52 135.66C51.4 135.66 51 135.252 51 134.64C51 134.028 51.4 133.62 52 133.62ZM52 132.6C50.9 132.6 50 133.518 50 134.64C50 135.762 50.9 136.68 52 136.68C53.1 136.68 54 135.762 54 134.64C54 133.518 53.1 132.6 52 132.6Z" fill="white"/>
</svg>
