<?xml version="1.0" encoding="utf-8"?>
<!-- Generator: Adobe Illustrator 21.0.0, SVG Export Plug-In . SVG Version: 6.00 Build 0)  -->
<svg version="1.1" id="Layer_1" xmlns="http://www.w3.org/2000/svg" xmlns:xlink="http://www.w3.org/1999/xlink" x="0px" y="0px"
	 width="32px" height="32px" viewBox="0 0 32 32" style="enable-background:new 0 0 32 32;" xml:space="preserve">
<style type="text/css">
	.st0{fill:#1C66AB;}
	.st1{fill:#FFFFFF;}
</style>
<path class="st0" d="M30.4,5.6c-0.6-1.9-2.1-3.5-4-4C24,0.9,20.3,0,16,0l0,0l0,0C11.7,0,8,0.9,5.7,1.6c-1.9,0.6-3.5,2.1-4,4
	C0.9,8,0,11.7,0,16s0.9,8,1.6,10.4c0.6,1.9,2.1,3.5,4,4C8,31.1,11.7,32,16,32l0,0l0,0c4.3,0,8-0.9,10.3-1.6c1.9-0.6,3.5-2.1,4-4
	C31.1,24,32,20.3,32,16S31.1,8,30.4,5.6z"/>
<g>
	<polygon class="st1" points="17.5,14.4 16,11.2 14.5,14.4 11,14.9 13.5,17.3 12.9,20.8 16,19.1 19.1,20.8 18.5,17.3 21,14.9 	"/>
	<path class="st1" d="M16,6C10.5,6,6,10.5,6,16s4.5,10,10,10s10-4.5,10-10S21.5,6,16,6z M16,24.5c-4.7,0-8.5-3.8-8.5-8.5
		c0-4.7,3.8-8.5,8.5-8.5s8.5,3.8,8.5,8.5C24.5,20.7,20.7,24.5,16,24.5z"/>
</g>
</svg>
