<?xml version="1.0" encoding="utf-8"?>
<!-- Generator: Adobe Illustrator 21.0.0, SVG Export Plug-In . SVG Version: 6.00 Build 0)  -->
<svg version="1.1" id="Layer_1" xmlns="http://www.w3.org/2000/svg" xmlns:xlink="http://www.w3.org/1999/xlink" x="0px" y="0px"
	 width="32px" height="32px" viewBox="0 0 32 32" style="enable-background:new 0 0 32 32;" xml:space="preserve">
<style type="text/css">
	.st0{fill:#1C66AB;}
	.st1{fill:#FFFFFF;}
	.st2{fill:none;stroke:#FFFFFF;stroke-width:2;stroke-miterlimit:10;}
</style>
<path class="st0" d="M30.4,5.6c-0.6-1.9-2.1-3.5-4-4C24,0.9,20.3,0,16,0l0,0l0,0C11.7,0,8,0.9,5.7,1.6c-1.9,0.6-3.5,2.1-4,4
	C0.9,8,0,11.7,0,16s0.9,8,1.6,10.4c0.6,1.9,2.1,3.5,4,4C8,31.1,11.7,32,16,32l0,0l0,0c4.3,0,8-0.9,10.3-1.6c1.9-0.6,3.5-2.1,4-4
	C31.1,24,32,20.3,32,16S31.1,8,30.4,5.6z"/>
<g>
	<rect x="6" y="12" class="st1" width="5" height="2"/>
</g>
<g>
	<rect x="21" y="12" class="st1" width="2" height="2"/>
</g>
<g>
	<g>
		<rect x="13" y="13" class="st1" width="1" height="1"/>
	</g>
	<g>
		<rect x="15" y="13" class="st1" width="1" height="1"/>
	</g>
	<g>
		<rect x="17" y="13" class="st1" width="1" height="1"/>
	</g>
</g>
<g>
	<rect x="6" y="17" class="st1" width="5" height="2"/>
</g>
<g>
	<rect x="21" y="17" class="st1" width="2" height="2"/>
</g>
<g>
	<g>
		<rect x="13" y="18" class="st1" width="1" height="1"/>
	</g>
	<g>
		<rect x="15" y="18" class="st1" width="1" height="1"/>
	</g>
	<g>
		<rect x="17" y="18" class="st1" width="1" height="1"/>
	</g>
</g>
<g>
	<rect x="6" y="22" class="st1" width="5" height="2"/>
</g>
<g>
	<rect x="21" y="22" class="st1" width="2" height="2"/>
</g>
<g>
	<g>
		<rect x="13" y="23" class="st1" width="1" height="1"/>
	</g>
	<g>
		<rect x="15" y="23" class="st1" width="1" height="1"/>
	</g>
	<g>
		<rect x="17" y="23" class="st1" width="1" height="1"/>
	</g>
</g>
<line class="st2" x1="6" y1="8" x2="26" y2="8"/>
</svg>
