<?xml version="1.0" encoding="utf-8"?>
<!-- Generator: Adobe Illustrator 21.0.0, SVG Export Plug-In . SVG Version: 6.00 Build 0)  -->
<svg version="1.1" id="Layer_1" xmlns="http://www.w3.org/2000/svg" xmlns:xlink="http://www.w3.org/1999/xlink" x="0px" y="0px"
	 width="32px" height="32px" viewBox="0 0 32 32" style="enable-background:new 0 0 32 32;" xml:space="preserve">
<style type="text/css">
	.st0{fill:#1C66AB;}
	.st1{fill:#FFFFFF;}
	.st2{opacity:0.3;}
</style>
<path class="st0" d="M30.4,5.6c-0.6-1.9-2.1-3.5-4-4C24,0.9,20.3,0,16,0l0,0l0,0C11.7,0,8,0.9,5.7,1.6c-1.9,0.6-3.5,2.1-4,4
	C0.9,8,0,11.7,0,16s0.9,8,1.6,10.4c0.6,1.9,2.1,3.5,4,4C8,31.1,11.7,32,16,32l0,0l0,0c4.3,0,8-0.9,10.3-1.6c1.9-0.6,3.5-2.1,4-4
	C31.1,24,32,20.3,32,16S31.1,8,30.4,5.6z"/>
<g>
	<g>
		<path class="st1" d="M23.4,7.5c0.7,0,1.1,0.5,1.2,1.2v14.7c0,0.7-0.6,1.1-1.1,1.1H8.6c-0.6,0-1.1-0.4-1.1-1V8.6
			c0-0.7,0.4-1.1,1.1-1.1L23.4,7.5 M23.4,6H8.6C7.1,6,6,7.1,6,8.6v14.9C6,24.9,7.1,26,8.6,26h14.9c1.4,0,2.6-1.1,2.6-2.6V8.6
			C26,7.1,24.9,6,23.4,6L23.4,6z"/>
	</g>
</g>
<g class="st2">
	<rect x="7" y="16" class="st1" width="18" height="9"/>
</g>
<path class="st1" d="M20,21c1.7,0,3-1.3,3-3s-1.3-3-3-3c-0.5,0-1.1,0.2-1.5,0.4V14c0-0.8,0.7-1.5,1.5-1.5s1.5,0.7,1.5,1.5H23
	c0-1.7-1.3-3-3-3s-3,1.3-3,3v4C17,19.7,18.3,21,20,21z M20,16.5c0.8,0,1.5,0.7,1.5,1.5s-0.7,1.5-1.5,1.5s-1.5-0.7-1.5-1.5
	S19.1,16.5,20,16.5z"/>
<path class="st1" d="M12,11c-1.7,0-3,1.3-3,3s1.3,3,3,3c0.5,0,1.1-0.2,1.5-0.4V18c0,0.8-0.7,1.5-1.5,1.5s-1.5-0.7-1.5-1.5H9
	c0,1.7,1.3,3,3,3s3-1.3,3-3v-4C15,12.3,13.6,11,12,11z M12,15.5c-0.8,0-1.5-0.7-1.5-1.5s0.7-1.5,1.5-1.5s1.5,0.7,1.5,1.5
	S12.8,15.5,12,15.5z"/>
</svg>
