<?xml version="1.0" encoding="utf-8"?>
<!-- Generator: Adobe Illustrator 21.0.0, SVG Export Plug-In . SVG Version: 6.00 Build 0)  -->
<svg version="1.1" id="Layer_1" xmlns="http://www.w3.org/2000/svg" xmlns:xlink="http://www.w3.org/1999/xlink" x="0px" y="0px"
	 width="32px" height="32px" viewBox="0 0 32 32" style="enable-background:new 0 0 32 32;" xml:space="preserve">
<style type="text/css">
	.st0{fill:#1C66AB;}
	.st1{fill:#FFFFFF;}
</style>
<path class="st0" d="M30.4,5.6c-0.6-1.9-2.1-3.5-4-4C24,0.9,20.3,0,16,0l0,0l0,0C11.7,0,8,0.9,5.7,1.6c-1.9,0.6-3.5,2.1-4,4
	C0.9,8,0,11.7,0,16s0.9,8,1.6,10.4c0.6,1.9,2.1,3.5,4,4C8,31.1,11.7,32,16,32l0,0l0,0c4.3,0,8-0.9,10.3-1.6c1.9-0.6,3.5-2.1,4-4
	C31.1,24,32,20.3,32,16S31.1,8,30.4,5.6z"/>
<rect x="6" y="19" class="st1" width="8" height="1"/>
<rect x="6" y="21" class="st1" width="8" height="1"/>
<rect x="6" y="23" class="st1" width="6" height="1"/>
<rect x="18" y="19" class="st1" width="8" height="1"/>
<rect x="18" y="21" class="st1" width="8" height="1"/>
<rect x="18" y="23" class="st1" width="6" height="1"/>
<g>
	<g>
		<g>
			<path class="st1" d="M12.5,9.5v6h-5v-6H12.5 M14,8H6v8.2V17h8v-0.8V8L14,8z"/>
		</g>
	</g>
	<polygon class="st1" points="12,15 12,14 11,14 11,13 10,13 9,13 9,14 8,14 8,15 7,15 7,16 8,16 9,16 10,16 11,16 12,16 13,16 
		13,15 	"/>
</g>
<g>
	<g>
		<g>
			<path class="st1" d="M24.5,9.5v6h-5v-6H24.5 M26,8h-8v8.2V17h8v-0.8V8L26,8z"/>
		</g>
	</g>
	<polygon class="st1" points="24,15 24,14 23,14 23,13 22,13 21,13 21,14 20,14 20,15 19,15 19,16 20,16 21,16 22,16 23,16 24,16 
		25,16 25,15 	"/>
</g>
</svg>
